<svg xmlns="http://www.w3.org/2000/svg" viewBox="0 0 20 19" width="20" height="19">
	<style>
		tspan { white-space:pre }
		.shp0 { fill: #6d7749 } 
	</style>
	<path id="1" class="shp0" d="M17.29 7.11L12.89 6.7C12.61 6.67 12.37 6.5 12.25 6.24L10.68 2.45C10.42 1.83 9.53 1.83 9.27 2.45L7.71 6.24C7.61 6.5 7.35 6.67 7.08 6.7L2.67 7.11C2.01 7.17 1.75 7.98 2.24 8.42L5.56 11.31C5.78 11.49 5.86 11.77 5.8 12.04L4.8 16.09C4.65 16.73 5.35 17.25 5.93 16.91L9.6 14.78C9.84 14.64 10.13 14.64 10.37 14.78L14.05 16.91C14.63 17.25 15.32 16.74 15.17 16.09L14.19 12.04C14.12 11.77 14.21 11.49 14.43 11.31L17.75 8.42C18.23 7.98 17.95 7.17 17.29 7.11Z" />
</svg>